<svg xmlns="http://www.w3.org/2000/svg" class="img-fluid" id="outputsvg" width="1024" height="1024" viewBox="0 0 10240 10240" style="&#10;    fill: #00f5ff;&#10;"><g><g><path id="pk4Oeohnb" d="M4242 6128 c-18 -6 -52 -28 -76 -49 -35 -31 -55 -40 -106 -48 -81 -13 -140 -43 -269 -136 -58 -41 -112 -75 -120 -75 -9 0 -68 12 -131 28 -113 27 -119 27 -430 26 -443 -1 -564 -18 -680 -95 -81 -55 -143 -127 -193 -228 -39 -78 -42 -90 -42 -165 0 -72 4 -89 32 -147 56 -112 184 -219 265 -219 51 0 81 -21 216 -151 156 -150 274 -233 393 -278 138 -52 184 -77 250 -139 100 -92 231 -202 240 -202 5 0 9 13 9 28 0 39 -44 98 -164 220 -103 106 -144 133 -264 178 -152 58 -222 107 -424 302 l-148 142 -64 0 c-60 0 -70 3 -127 43 -94 64 -122 104 -127 182 -4 58 -1 71 33 139 48 98 124 177 207 216 83 39 175 49 518 57 291 6 376 0 518 -38 85 -24 140 -26 173 -9 13 7 58 39 99 70 138 105 173 123 258 128 l75 5 -7 -51 c-20 -155 87 -375 280 -572 47 -48 74 -84 74 -98 0 -26 -12 -28 -31 -6 -21 26 -66 44 -108 44 -31 0 -49 -7 -73 -29 -32 -28 -33 -33 -33 -103 0 -87 23 -141 92 -218 62 -69 112 -94 190 -94 47 -1 68 4 90 20 51 38 55 90 10 118 -12 8 -23 5 -46 -12 -38 -27 -64 -28 -107 -1 -60 37 -142 186 -113 205 13 8 30 -7 80 -74 89 -119 112 -132 160 -93 20 16 24 30 26 78 1 32 2 59 3 61 0 2 30 -24 68 -57 l67 -60 12 -75 c7 -42 19 -89 28 -106 17 -34 53 -47 84 -31 32 18 35 53 11 126 -12 37 -20 68 -18 71 3 2 23 -19 44 -48 71 -95 141 -122 189 -73 28 27 29 48 16 176 -16 156 9 179 84 78 48 -65 48 -66 66 -169 6 -35 17 -77 25 -92 17 -33 55 -45 91 -29 28 13 28 18 4 190 -12 85 -6 143 20 174 17 22 18 22 53 3 37 -20 81 -68 130 -143 27 -40 28 -48 36 -232 5 -104 14 -236 20 -291 7 -56 11 -103 9 -105 -11 -10 -259 66 -351 107 -46 21 -75 28 -93 24 -33 -8 -49 -47 -33 -82 20 -44 172 -106 404 -165 l92 -23 25 -130 c29 -149 47 -181 98 -181 56 0 62 28 40 166 -11 63 -18 116 -16 118 2 2 41 -2 87 -8 46 -6 142 -14 213 -17 124 -6 131 -5 158 15 30 25 35 57 13 86 -12 17 -33 20 -177 27 -138 6 -307 22 -315 31 -8 9 -36 342 -44 522 -9 202 -5 337 15 610 3 44 2 85 -2 92 -16 22 -58 25 -82 6 -26 -21 -46 -126 -57 -302 -4 -61 -10 -111 -14 -111 -3 0 -19 14 -36 31 -91 96 -231 95 -287 -1 l-19 -31 -43 40 c-49 45 -97 59 -149 41 -66 -21 -103 -111 -93 -221 3 -32 1 -59 -3 -59 -13 0 -89 126 -111 186 -23 61 -51 80 -93 64 -29 -11 -38 -24 -45 -67 l-6 -33 -59 53 -60 53 -3 138 c-4 212 -46 422 -103 514 -31 51 -24 50 29 -2 l49 -48 150 4 c175 4 180 6 248 104 61 88 68 91 210 71 261 -36 463 -119 697 -285 137 -97 151 -102 218 -90 53 10 59 9 107 -17 28 -15 122 -83 209 -151 189 -148 237 -175 369 -207 167 -41 301 -119 554 -322 l145 -116 64 6 c60 5 70 3 130 -27 79 -39 175 -130 184 -174 22 -113 -105 -300 -254 -373 -69 -34 -142 -46 -334 -57 -110 -7 -110 -7 -70 -21 114 -40 200 -55 296 -51 84 3 104 8 165 38 82 40 204 157 246 236 102 190 61 349 -125 475 -75 52 -125 69 -205 69 l-65 0 -96 78 c-281 228 -441 320 -624 358 -39 9 -85 22 -102 30 -16 8 -111 77 -210 154 -226 176 -253 190 -359 190 l-81 0 -85 61 c-181 129 -305 194 -473 248 -206 66 -410 89 -480 55 -18 -8 -63 -48 -102 -89 l-70 -73 -98 -7 -97 -6 -67 65 c-98 95 -148 119 -253 123 -47 1 -100 -3 -118 -9z m143 -254 c68 -73 126 -286 125 -454 l-1 -45 -49 55 c-130 145 -219 390 -163 452 23 26 60 22 88 -8z"/><path id="pl3pK7wVv" d="M4024 5806 c-17 -13 -19 -26 -17 -138 1 -124 19 -289 53 -493 11 -60 17 -111 15 -114 -2 -2 -18 8 -34 22 -17 14 -56 38 -88 54 -49 24 -70 28 -138 28 -87 0 -117 -11 -180 -67 -68 -59 -105 -163 -105 -295 0 -151 36 -282 121 -442 122 -230 284 -381 442 -412 44 -9 64 -8 108 4 96 28 143 99 155 236 9 96 -8 206 -101 676 -94 468 -109 552 -135 775 -15 122 -22 157 -36 167 -23 17 -36 16 -60 -1z m-104 -783 c28 -16 85 -57 125 -93 l73 -65 41 -210 c52 -270 61 -337 61 -432 0 -142 -44 -186 -141 -141 -107 49 -235 192 -315 350 -69 137 -97 243 -98 368 -1 96 1 110 27 163 17 33 40 63 55 72 44 24 113 19 172 -12z"/><path id="pUCZ4PQrN" d="M5944 5221 c-66 -30 -98 -81 -102 -160 -5 -81 8 -133 48 -193 41 -61 98 -100 158 -106 41 -4 52 0 80 23 26 22 32 34 32 66 0 78 -64 158 -157 196 -24 10 -43 22 -43 26 0 19 51 57 77 57 55 0 133 -48 214 -130 44 -44 85 -80 93 -80 22 0 46 28 46 53 0 54 -121 184 -216 232 -76 38 -169 45 -230 16z m84 -304 c22 -20 30 -47 14 -47 -13 0 -62 55 -62 69 0 14 15 7 48 -22z"/><path id="pSV2WfcAj" d="M5376 4658 c-36 -50 -5 -118 52 -118 65 0 92 96 38 132 -24 16 -75 8 -90 -14z"/></g></g></svg>